HIERARCHY
ROOT Hips
{
	OFFSET 0.000000 0.000000 0.000000 
	CHANNELS 6 Xposition Yposition Zposition Zrotation Yrotation Xrotation
	JOINT LeftUpLeg
	{
		OFFSET 1.363060 -1.794630 0.839290 
		CHANNELS 3 Zrotation Yrotation Xrotation
		JOINT LeftLeg
		{
			OFFSET 2.448110 -6.726130 0.000000 
			CHANNELS 3 Zrotation Yrotation Xrotation
			JOINT LeftFoot
			{
				OFFSET 2.562200 -7.039590 0.000000 
				CHANNELS 3 Zrotation Yrotation Xrotation
				JOINT LeftToeBase
				{
					OFFSET 0.157640 -0.433110 2.322550 
					CHANNELS 3 Zrotation Yrotation Xrotation
					End Site
					{
						OFFSET 0.000000 0.000000 0.000000 
					}
				}
			}
		}
	}
	JOINT RightUpLeg
	{
		OFFSET -1.305520 -1.794630 0.839290 
		CHANNELS 3 Zrotation Yrotation Xrotation
		JOINT RightLeg
		{
			OFFSET -2.542530 -6.985550 0.000000 
			CHANNELS 3 Zrotation Yrotation Xrotation
			JOINT RightFoot
			{
				OFFSET -2.568260 -7.056230 0.000000 
				CHANNELS 3 Zrotation Yrotation Xrotation
				JOINT RightToeBase
				{
					OFFSET -0.164730 -0.452590 2.363150 
					CHANNELS 3 Zrotation Yrotation Xrotation
					End Site
					{
						OFFSET 0.000000 0.000000 0.000000 
					}
				}
			}
		}
	}
	JOINT Spine
	{
		OFFSET 0.028270 2.035590 -0.193380 
		CHANNELS 3 Zrotation Yrotation Xrotation
		JOINT Spine1
		{
			OFFSET 0.056720 2.048850 -0.042750 
			CHANNELS 3 Zrotation Yrotation Xrotation
			JOINT Neck1
			{
				OFFSET -0.054170 1.746240 0.172020 
				CHANNELS 3 Zrotation Yrotation Xrotation
				JOINT Head
				{
					OFFSET 0.104070 1.761360 -0.123970 
					CHANNELS 3 Zrotation Yrotation Xrotation
					End Site
					{
						OFFSET 0.000000 0.000000 0.000000 
					}
				}
			}
			JOINT LeftArm
			{
				OFFSET 3.362410 1.200890 -0.311210 
				CHANNELS 3 Zrotation Yrotation Xrotation
				JOINT LeftForeArm
				{
					OFFSET 4.983000 -0.000000 -0.000000 
					CHANNELS 3 Zrotation Yrotation Xrotation
					JOINT LeftHand
					{
						OFFSET 3.483560 -0.000000 -0.000000 
						CHANNELS 3 Zrotation Yrotation Xrotation
						JOINT LeftHandIndex1
						{
							OFFSET 0.715260 -0.000000 -0.000000 
							CHANNELS 3 Zrotation Yrotation Xrotation
							End Site
							{
								OFFSET 0.000000 0.000000 0.000000 
							}
						}
					}
				}
			}
			JOINT RightArm
			{
				OFFSET -3.136600 1.374050 -0.404650 
				CHANNELS 3 Zrotation Yrotation Xrotation
				JOINT RightForeArm
				{
					OFFSET -5.241900 -0.000000 -0.000000 
					CHANNELS 3 Zrotation Yrotation Xrotation
					JOINT RightHand
					{
						OFFSET -3.444170 -0.000000 -0.000000 
						CHANNELS 3 Zrotation Yrotation Xrotation
						JOINT RightHandIndex1
						{
							OFFSET -0.622530 -0.000000 -0.000000 
							CHANNELS 3 Zrotation Yrotation Xrotation
							End Site
							{
								OFFSET 0.000000 0.000000 0.000000 
							}
						}
					}
				}
			}
		}
	}
}
MOTION
Frames: 10
Frame Time: 0.041667
0.456180 18.230892 -2.300014 1.417497 -3.334319 4.480232 -15.298969 -11.664708 -6.464905 -0.723777 2.320014 10.979132 -3.345997 14.282008 -5.784360 0.042000 -1.322600 -3.636900 20.089310 25.108247 -0.424405 -0.904111 -3.024058 14.724587 3.965873 -15.570192 -7.554313 -0.006400 0.517600 -1.422400 -12.226550 1.695631 14.537550 4.402659 1.309894 -9.909126 11.606784 -3.670892 13.303472 4.300600 -1.336900 4.778100 -81.825389 3.907372 4.342004 13.684310 -20.739924 -2.436575 -0.346010 -1.072654 3.420909 -7.125000 0.000000 0.000000 77.029297 -3.858627 19.813871 -15.023147 18.696136 -2.975161 0.920861 0.405352 18.659964 7.125000 0.000000 0.000000 
0.455988 18.230411 -2.305104 1.336616 -3.347489 4.493606 -15.224394 -11.665300 -6.621449 -0.702374 2.392030 11.177778 -3.333548 14.233678 -5.811892 0.042900 -1.337400 -3.677600 20.154236 25.124575 -0.428862 -0.897163 -2.998752 14.664608 3.972849 -15.584618 -7.526515 -0.006700 0.530500 -1.457600 -12.108405 1.704580 14.641436 4.367999 1.310885 -9.923583 11.494706 -3.633833 13.083575 4.272200 -1.331000 4.716800 -81.726584 3.845663 4.758429 13.619118 -20.637482 -2.412893 -0.344563 -1.069573 2.871983 -7.125000 0.000000 0.000000 77.037262 -3.831152 19.886699 -15.072901 18.775073 -3.004244 0.904471 0.408759 18.523332 7.125000 0.000000 0.000000 
0.455604 18.230315 -2.311250 1.266515 -3.397717 4.540761 -15.139690 -11.678430 -6.720801 -0.697281 2.417510 11.235027 -3.323523 14.197087 -5.823239 0.038300 -1.263600 -3.474400 20.221481 25.237353 -0.467544 -0.900483 -3.001879 14.686117 3.981960 -15.618054 -7.553573 -0.005800 0.493700 -1.356600 -12.106776 1.761983 14.596108 4.327132 1.338640 -9.981214 11.552483 -3.641561 13.000889 4.281200 -1.334900 4.685500 -81.621476 3.852719 5.012623 13.559574 -20.550633 -2.391052 -0.351398 -1.062125 2.631831 -7.125000 0.000000 0.000000 77.078454 -3.883714 19.910855 -15.110979 18.835618 -3.023230 0.906651 0.411037 18.482768 7.125000 0.000000 0.000000 
0.456661 18.231276 -2.315284 1.263641 -3.411701 4.548993 -15.142970 -11.663546 -6.800164 -0.688797 2.442267 11.308708 -3.316645 14.167486 -5.810509 0.039100 -1.276000 -3.508600 20.204776 25.272990 -0.521025 -0.904722 -3.009294 14.713084 3.974498 -15.589215 -7.535879 -0.005600 0.482000 -1.324300 -12.069661 1.796205 14.721484 4.304612 1.352600 -10.009995 11.656247 -3.628738 12.938662 4.312800 -1.325400 4.677100 -81.610944 3.771556 5.043079 13.550110 -20.541555 -2.388158 -0.358209 -1.058783 2.628533 -7.125000 0.000000 0.000000 77.092498 -3.820480 19.906397 -15.131896 18.865200 -3.029696 0.916576 0.415890 18.483046 7.125000 0.000000 0.000000 
0.460598 18.231276 -2.317013 1.331583 -3.379434 4.548020 -15.227153 -11.693311 -6.823102 -0.683806 2.448372 11.348080 -3.312250 14.152095 -5.845499 0.039100 -1.276800 -3.510700 20.089772 25.217656 -0.642462 -0.915293 -3.036382 14.791596 3.949298 -15.504535 -7.531637 -0.005000 0.455000 -1.250300 -12.100877 1.799965 14.986265 4.312670 1.343486 -9.986790 11.552362 -3.637109 12.899894 4.284300 -1.331600 4.693700 -81.625270 3.635961 5.044120 13.578246 -20.586554 -2.401938 -0.353445 -1.050487 2.559257 -7.125000 0.000000 0.000000 77.096930 -3.681958 19.983084 -15.151139 18.891513 -3.035763 0.931637 0.416826 18.440042 7.125000 0.000000 0.000000 
0.462807 18.229931 -2.320662 1.326085 -3.388278 4.547456 -15.230099 -11.694674 -6.856957 -0.682659 2.448765 11.357314 -3.316410 14.165630 -5.862485 0.040000 -1.290300 -3.548000 20.067955 25.196628 -0.763340 -0.933161 -3.076187 14.915256 3.939826 -15.466794 -7.485148 -0.004400 0.429900 -1.181300 -12.095694 1.812797 15.235817 4.302064 1.338514 -9.992962 11.306735 -3.641189 12.882034 4.212400 -1.339500 4.712700 -81.625927 3.531078 4.980998 13.648619 -20.695930 -2.431544 -0.335508 -1.056285 2.620939 -7.125000 0.000000 0.000000 77.143080 -3.578529 19.977210 -15.183696 18.943938 -3.053702 0.933490 0.403525 18.487014 7.125000 0.000000 0.000000 
0.463960 18.228010 -2.323159 1.399465 -3.403430 4.503056 -15.318180 -11.649204 -6.853275 -0.680361 2.446532 11.367424 -3.306163 14.124713 -5.839971 0.039900 -1.289400 -3.545400 19.984129 25.190564 -0.846178 -0.955803 -3.131739 15.072883 3.937941 -15.457356 -7.434491 -0.003200 0.364900 -1.002600 -12.125543 1.848123 15.422772 4.322406 1.351374 -10.020621 11.283180 -3.613848 12.935235 4.209800 -1.324000 4.734200 -81.639755 3.464604 4.986538 13.735115 -20.831795 -2.463575 -0.324974 -1.085693 2.819792 -7.125000 0.000000 0.000000 77.156214 -3.549875 20.049477 -15.214795 18.998773 -3.072003 0.934021 0.400480 18.333626 7.125000 0.000000 0.000000 
0.465496 18.226666 -2.325560 1.504503 -3.371682 4.498393 -15.431788 -11.620917 -6.901007 -0.672575 2.460054 11.421983 -3.282791 14.028776 -5.756857 0.038500 -1.266100 -3.481400 19.863292 25.241599 -0.950128 -0.977840 -3.191020 15.242308 3.921692 -15.423253 -7.533794 -0.001600 0.257900 -0.708500 -12.176346 1.840479 15.469760 4.354877 1.348946 -10.038667 11.506808 -3.561999 12.844639 4.281100 -1.293400 4.707000 -81.659828 3.474181 4.930032 13.766657 -20.884751 -2.475368 -0.331222 -1.090579 2.887503 -7.125000 0.000000 0.000000 77.147786 -3.564479 20.107896 -15.238958 19.040596 -3.086562 0.928251 0.404469 18.254953 7.125000 0.000000 0.000000 
0.467993 18.224841 -2.329594 1.605232 -3.334010 4.498151 -15.558290 -11.577550 -6.953422 -0.663777 2.477615 11.488843 -3.255313 13.922089 -5.705102 0.037400 -1.247500 -3.430000 19.733605 25.222370 -1.085290 -1.000712 -3.254545 15.421255 3.899127 -15.371398 -7.645313 -0.001100 0.217700 -0.598100 -12.136434 1.792908 15.426786 4.416188 1.339005 -10.117206 11.641176 -3.497887 12.809429 4.329200 -1.259300 4.684300 -81.674210 3.532178 4.994401 13.760848 -20.877189 -2.475107 -0.331510 -1.078240 2.704472 -7.125000 0.000000 0.000000 77.063845 -3.637269 20.293090 -15.246285 19.068447 -3.096486 0.927658 0.401644 18.114135 7.125000 0.000000 0.000000 
0.468761 18.223497 -2.333915 1.600736 -3.364031 4.516723 -15.565375 -11.504457 -7.046288 -0.655321 2.504584 11.572086 -3.214615 13.772869 -5.738605 0.030400 -1.125000 -3.092800 19.716575 25.255422 -1.223170 -1.025905 -3.316112 15.608709 3.869420 -15.281430 -7.682518 -0.000900 0.191100 -0.525100 -12.029243 1.801162 15.442247 4.415723 1.350624 -10.171697 11.772944 -3.473689 12.677552 4.374700 -1.249200 4.641000 -81.622469 3.565950 5.335432 13.769139 -20.890305 -2.480556 -0.331611 -1.074079 2.377527 -7.125000 0.000000 0.000000 77.008565 -3.650288 20.369785 -15.243345 19.071799 -3.099587 0.924388 0.390748 18.040320 7.125000 0.000000 0.000000 
